<svg xmlns="http://www.w3.org/2000/svg" xmlns:xlink="http://www.w3.org/1999/xlink" width="500" zoomAndPan="magnify" viewBox="0 0 375 374.999991" height="500" preserveAspectRatio="xMidYMid meet" version="1.0"><defs><g/></defs><path stroke-linecap="butt" transform="matrix(0.75, 0, 0, 0.75, 106.196371, 2.891016)" fill="none" stroke-linejoin="miter" d="M 122.305888 229.41616 L 107.144429 298.858873 L 11.904839 298.858873 C 10.769423 298.858873 9.592339 298.478664 8.363172 297.723456 C 7.134006 296.874498 6.045464 295.931789 5.102755 294.890123 C 4.253797 293.947414 3.545464 292.811997 2.977755 291.489081 C 2.410047 290.447414 2.222547 289.457831 2.410047 288.509914 L 34.581924 141.686987 L 129.816305 141.686987 C 130.951722 141.686987 132.134014 142.067196 133.363181 142.822404 C 134.592347 143.671363 135.675681 144.614071 136.623597 145.655738 C 137.472556 146.692196 138.180889 147.827613 138.748598 149.05678 C 139.316306 150.093238 139.503806 151.08803 139.316306 152.030738 L 128.545472 201.0672 L 93.680886 179.525532 L 95.378803 172.015114 L 67.316301 172.015114 L 60.660051 202.202616 L 31.035049 202.202616 L 54.988175 228.140118 L 46.201717 268.530746 L 74.264218 268.530746 L 80.785052 238.624494 L 74.545468 238.624494 L 46.6288 208.296367 L 100.623595 208.296367 Z M 122.305888 229.41616 " stroke="#ffffff" stroke-width="11.247381" stroke-opacity="1" stroke-miterlimit="4"/><g fill="#000000" fill-opacity="1"><g transform="translate(106.196371, 227.141002)"><g><path d="M 91.734375 -52.1875 L 80.359375 -0.109375 L 8.921875 -0.109375 C 8.078125 -0.109375 7.191406 -0.390625 6.265625 -0.953125 C 5.347656 -1.585938 4.535156 -2.296875 3.828125 -3.078125 C 3.191406 -3.785156 2.660156 -4.640625 2.234375 -5.640625 C 1.804688 -6.410156 1.664062 -7.148438 1.8125 -7.859375 L 25.9375 -117.984375 L 97.359375 -117.984375 C 98.210938 -117.984375 99.097656 -117.703125 100.015625 -117.140625 C 100.941406 -116.492188 101.757812 -115.785156 102.46875 -115.015625 C 103.101562 -114.234375 103.632812 -113.378906 104.0625 -112.453125 C 104.488281 -111.671875 104.628906 -110.925781 104.484375 -110.21875 L 96.40625 -73.453125 L 70.265625 -89.609375 L 71.53125 -95.234375 L 50.484375 -95.234375 L 45.5 -72.59375 L 23.28125 -72.59375 L 41.234375 -53.140625 L 34.65625 -22.859375 L 55.703125 -22.859375 L 60.59375 -45.28125 L 55.90625 -45.28125 L 34.96875 -68.03125 L 75.46875 -68.03125 Z M 91.734375 -52.1875 "/></g></g></g><path stroke-linecap="butt" transform="matrix(0.75, 0, 0, 0.75, 168.685203, 2.891016)" fill="none" stroke-linejoin="miter" d="M 10.060355 298.858873 L 39.680149 163.655739 L 22.961397 141.686987 L 142.857239 141.686987 C 143.992655 141.686987 145.169739 142.067196 146.398906 142.822404 C 146.966614 143.291154 147.508281 143.744279 148.029114 144.166154 C 148.549947 144.593238 149.044739 145.088029 149.518697 145.655738 C 150.461406 146.598446 151.216614 147.733863 151.784323 149.05678 C 152.352031 150.093238 152.539531 151.08803 152.352031 152.030738 L 138.888488 213.114076 L 119.47182 223.035951 L 134.638488 232.671368 L 122.450987 288.509914 C 122.357237 289.270331 121.742654 290.259914 120.607237 291.489081 C 120.039529 292.150539 119.47182 292.765122 118.904112 293.332831 C 118.341612 293.900539 117.680154 294.416164 116.919737 294.890123 C 116.164529 295.457831 115.435362 295.952623 114.727029 296.379706 C 114.018695 296.801581 113.28432 297.249498 112.529112 297.723456 C 110.825987 298.478664 109.456195 298.858873 108.419736 298.858873 Z M 108.279111 172.015114 L 77.383276 172.015114 L 71.289526 200.218241 L 60.091608 207.447408 L 65.477025 226.577618 L 56.263483 268.530746 L 87.299943 268.530746 L 94.529111 235.364077 L 78.799943 243.160952 L 69.727026 211.1297 L 104.023903 191.431782 Z M 108.279111 172.015114 " stroke="#ffffff" stroke-width="11.247381" stroke-opacity="1" stroke-miterlimit="4"/><g fill="#000000" fill-opacity="1"><g transform="translate(168.685203, 227.141002)"><g><path d="M 7.546875 -0.109375 L 29.765625 -101.515625 L 17.21875 -117.984375 L 107.140625 -117.984375 C 107.992188 -117.984375 108.878906 -117.703125 109.796875 -117.140625 C 110.222656 -116.785156 110.628906 -116.445312 111.015625 -116.125 C 111.410156 -115.800781 111.785156 -115.429688 112.140625 -115.015625 C 112.847656 -114.304688 113.414062 -113.453125 113.84375 -112.453125 C 114.269531 -111.671875 114.410156 -110.925781 114.265625 -110.21875 L 104.171875 -64.40625 L 89.609375 -56.96875 L 100.984375 -49.75 L 91.84375 -7.859375 C 91.769531 -7.296875 91.304688 -6.554688 90.453125 -5.640625 C 90.023438 -5.140625 89.597656 -4.675781 89.171875 -4.25 C 88.753906 -3.820312 88.257812 -3.429688 87.6875 -3.078125 C 87.125 -2.648438 86.578125 -2.273438 86.046875 -1.953125 C 85.515625 -1.640625 84.960938 -1.304688 84.390625 -0.953125 C 83.117188 -0.390625 82.09375 -0.109375 81.3125 -0.109375 Z M 81.203125 -95.234375 L 58.03125 -95.234375 L 53.46875 -74.09375 L 45.0625 -68.671875 L 49.109375 -54.3125 L 42.203125 -22.859375 L 65.46875 -22.859375 L 70.890625 -47.71875 L 59.09375 -41.875 L 52.296875 -65.90625 L 78.015625 -80.671875 Z M 81.203125 -95.234375 "/></g></g></g><g fill="#000000" fill-opacity="1"><g transform="translate(98.507112, 253.024893)"><g><path d="M 6.859375 -9 C 5.960938 -8.925781 5.226562 -8.367188 4.65625 -7.328125 C 4.257812 -6.421875 4.332031 -5.578125 4.875 -4.796875 C 5.363281 -4.203125 6.054688 -3.96875 6.953125 -4.09375 C 7.679688 -4.28125 8.40625 -4.628906 9.125 -5.140625 C 9.675781 -4.628906 10.390625 -3.601562 11.265625 -2.0625 C 11.171875 -1.945312 11.039062 -1.8125 10.875 -1.65625 C 10.71875 -1.507812 10.53125 -1.335938 10.3125 -1.140625 C 9.132812 -0.335938 7.863281 0.09375 6.5 0.15625 C 2.4375 0.15625 0.40625 -1.867188 0.40625 -5.921875 C 0.457031 -6.734375 0.617188 -7.550781 0.890625 -8.375 C 1.554688 -10.164062 2.726562 -11.546875 4.40625 -12.515625 C 6.3125 -13.503906 8.28125 -13.5625 10.3125 -12.6875 C 10.675781 -12.457031 10.9375 -12.296875 11.09375 -12.203125 C 10.289062 -10.484375 9.53125 -9.226562 8.8125 -8.4375 C 8.175781 -8.789062 7.523438 -8.976562 6.859375 -9 Z M 6.859375 -9 "/></g></g></g><g fill="#000000" fill-opacity="1"><g transform="translate(110.185134, 253.024893)"><g><path d="M 9.234375 -3.875 C 9.515625 -3.5 9.820312 -3.085938 10.15625 -2.640625 C 10.5 -2.203125 10.863281 -1.722656 11.25 -1.203125 C 10.882812 -0.859375 10.472656 -0.5 10.015625 -0.125 C 9.566406 0.25 9.0625 0.640625 8.5 1.046875 C 8.382812 0.960938 7.492188 -0.1875 5.828125 -2.40625 C 5.640625 -2.382812 5.441406 -2.367188 5.234375 -2.359375 C 5.023438 -2.347656 4.8125 -2.335938 4.59375 -2.328125 C 4.59375 -1.941406 4.585938 -1.550781 4.578125 -1.15625 C 4.578125 -0.757812 4.578125 -0.359375 4.578125 0.046875 C 3.460938 0.265625 2.109375 0.394531 0.515625 0.4375 C 0.453125 -1.925781 0.414062 -4.175781 0.40625 -6.3125 C 0.40625 -8.445312 0.429688 -10.488281 0.484375 -12.4375 C 0.679688 -12.582031 1.796875 -12.769531 3.828125 -13 C 4.546875 -13.082031 5.222656 -13.125 5.859375 -13.125 C 6.492188 -13.125 7.085938 -13.082031 7.640625 -13 C 9.921875 -12.539062 11.085938 -11.015625 11.140625 -8.421875 C 11.128906 -6.429688 10.492188 -4.914062 9.234375 -3.875 Z M 4.609375 -5.78125 C 6.304688 -5.925781 7.238281 -6.429688 7.40625 -7.296875 C 7.53125 -8.285156 7.320312 -8.9375 6.78125 -9.25 C 6.363281 -9.457031 5.617188 -9.484375 4.546875 -9.328125 C 4.566406 -8.753906 4.578125 -8.171875 4.578125 -7.578125 C 4.585938 -6.992188 4.597656 -6.394531 4.609375 -5.78125 Z M 4.609375 -5.78125 "/></g></g></g><g fill="#000000" fill-opacity="1"><g transform="translate(121.846891, 253.024893)"><g><path d="M 9.640625 -13.34375 C 9.703125 -12.71875 9.726562 -12.109375 9.71875 -11.515625 C 9.707031 -10.921875 9.675781 -10.335938 9.625 -9.765625 L 4.328125 -9.25 L 4.34375 -8 L 9.4375 -8.4375 L 9.4375 -5.015625 C 9.332031 -4.992188 8.859375 -4.941406 8.015625 -4.859375 C 7.179688 -4.785156 5.972656 -4.675781 4.390625 -4.53125 L 4.40625 -3.34375 C 7.695312 -3.726562 9.445312 -3.910156 9.65625 -3.890625 C 9.757812 -2.492188 9.757812 -1.328125 9.65625 -0.390625 C 7.507812 -0.0664062 4.457031 0.191406 0.5 0.390625 C 0.445312 -1.554688 0.414062 -3.597656 0.40625 -5.734375 C 0.40625 -7.867188 0.429688 -10.109375 0.484375 -12.453125 C 3.984375 -12.941406 7.035156 -13.238281 9.640625 -13.34375 Z M 9.640625 -13.34375 "/></g></g></g><g fill="#000000" fill-opacity="1"><g transform="translate(131.996036, 253.024893)"><g><path d="M 4.84375 -1.578125 C 4.789062 -1.328125 4.738281 -1.082031 4.6875 -0.84375 C 4.632812 -0.601562 4.578125 -0.359375 4.515625 -0.109375 C 2.535156 0.015625 1.164062 -0.0703125 0.40625 -0.375 C 1.28125 -3.65625 2.023438 -6.375 2.640625 -8.53125 C 3.253906 -10.695312 3.738281 -12.316406 4.09375 -13.390625 C 5.71875 -13.753906 7.191406 -13.890625 8.515625 -13.796875 C 9.265625 -11.878906 10 -9.890625 10.71875 -7.828125 C 11.4375 -5.773438 12.140625 -3.625 12.828125 -1.375 C 12.171875 -1 10.765625 -0.679688 8.609375 -0.421875 C 8.523438 -0.671875 8.453125 -0.914062 8.390625 -1.15625 C 8.328125 -1.394531 8.257812 -1.628906 8.1875 -1.859375 C 7.726562 -1.828125 7.222656 -1.785156 6.671875 -1.734375 C 6.128906 -1.679688 5.519531 -1.628906 4.84375 -1.578125 Z M 7.1875 -5.15625 C 7.03125 -5.695312 6.878906 -6.179688 6.734375 -6.609375 C 6.597656 -7.035156 6.472656 -7.40625 6.359375 -7.71875 C 6.242188 -7.269531 6.128906 -6.820312 6.015625 -6.375 C 5.898438 -5.925781 5.78125 -5.476562 5.65625 -5.03125 Z M 7.1875 -5.15625 "/></g></g></g><g fill="#000000" fill-opacity="1"><g transform="translate(145.235465, 253.024893)"><g><path d="M 8.1875 -9.53125 C 8.207031 -7.550781 8.21875 -5.800781 8.21875 -4.28125 C 8.21875 -2.769531 8.195312 -1.484375 8.15625 -0.421875 C 7.195312 -0.265625 6.378906 -0.160156 5.703125 -0.109375 C 5.023438 -0.0546875 4.472656 -0.0507812 4.046875 -0.09375 C 4.023438 -1.539062 4.007812 -3.015625 4 -4.515625 C 3.988281 -6.015625 3.992188 -7.566406 4.015625 -9.171875 C 2.953125 -9.078125 1.78125 -8.976562 0.5 -8.875 C 0.445312 -9.445312 0.414062 -10.050781 0.40625 -10.6875 C 0.40625 -11.332031 0.429688 -12.023438 0.484375 -12.765625 C 2.460938 -12.992188 4.390625 -13.191406 6.265625 -13.359375 C 8.148438 -13.535156 10.007812 -13.6875 11.84375 -13.8125 C 11.894531 -12.613281 11.878906 -11.316406 11.796875 -9.921875 C 11.515625 -9.859375 10.3125 -9.726562 8.1875 -9.53125 Z M 8.1875 -9.53125 "/></g></g></g><g fill="#000000" fill-opacity="1"><g transform="translate(157.515279, 253.024893)"><g><path d="M 4.578125 -13.4375 C 4.628906 -11.320312 4.65625 -9.1875 4.65625 -7.03125 C 4.664062 -4.882812 4.648438 -2.691406 4.609375 -0.453125 C 3.398438 -0.253906 2.039062 -0.125 0.53125 -0.0625 C 0.40625 -3.15625 0.375 -7.488281 0.4375 -13.0625 C 1.175781 -13.195312 1.882812 -13.296875 2.5625 -13.359375 C 3.25 -13.421875 3.921875 -13.445312 4.578125 -13.4375 Z M 1.875 -14.40625 C 1.070312 -14.53125 0.675781 -15.019531 0.6875 -15.875 C 0.769531 -16.644531 1.179688 -17.210938 1.921875 -17.578125 C 2.660156 -17.941406 3.320312 -18.007812 3.90625 -17.78125 C 4.65625 -17.382812 4.953125 -16.800781 4.796875 -16.03125 C 4.628906 -15.445312 4.316406 -15.007812 3.859375 -14.71875 C 3.304688 -14.382812 2.644531 -14.28125 1.875 -14.40625 Z M 1.875 -14.40625 "/></g></g></g><g fill="#000000" fill-opacity="1"><g transform="translate(162.589852, 253.024893)"><g><path d="M 9.15625 -0.03125 C 7.507812 0.34375 6.035156 0.472656 4.734375 0.359375 C 3.984375 -1.554688 3.25 -3.539062 2.53125 -5.59375 C 1.820312 -7.65625 1.113281 -9.804688 0.40625 -12.046875 C 1.082031 -12.421875 2.492188 -12.738281 4.640625 -13 C 5.148438 -11.257812 5.585938 -9.785156 5.953125 -8.578125 C 6.316406 -7.367188 6.625 -6.40625 6.875 -5.6875 C 7.226562 -6.976562 7.554688 -8.253906 7.859375 -9.515625 C 8.160156 -10.785156 8.445312 -12.054688 8.71875 -13.328125 C 10.75 -13.441406 12.117188 -13.347656 12.828125 -13.046875 C 11.953125 -9.753906 11.207031 -7.03125 10.59375 -4.875 C 9.976562 -2.726562 9.5 -1.113281 9.15625 -0.03125 Z M 9.15625 -0.03125 "/></g></g></g><g fill="#000000" fill-opacity="1"><g transform="translate(175.829281, 253.024893)"><g><path d="M 9.640625 -13.34375 C 9.703125 -12.71875 9.726562 -12.109375 9.71875 -11.515625 C 9.707031 -10.921875 9.675781 -10.335938 9.625 -9.765625 L 4.328125 -9.25 L 4.34375 -8 L 9.4375 -8.4375 L 9.4375 -5.015625 C 9.332031 -4.992188 8.859375 -4.941406 8.015625 -4.859375 C 7.179688 -4.785156 5.972656 -4.675781 4.390625 -4.53125 L 4.40625 -3.34375 C 7.695312 -3.726562 9.445312 -3.910156 9.65625 -3.890625 C 9.757812 -2.492188 9.757812 -1.328125 9.65625 -0.390625 C 7.507812 -0.0664062 4.457031 0.191406 0.5 0.390625 C 0.445312 -1.554688 0.414062 -3.597656 0.40625 -5.734375 C 0.40625 -7.867188 0.429688 -10.109375 0.484375 -12.453125 C 3.984375 -12.941406 7.035156 -13.238281 9.640625 -13.34375 Z M 9.640625 -13.34375 "/></g></g></g><g fill="#000000" fill-opacity="1"><g transform="translate(185.990891, 253.024893)"><g/></g></g><g fill="#fa4729" fill-opacity="1"><g transform="translate(186.367477, 254.057283)"><g><path d="M 0.53125 -12.71875 C 1.21875 -13.144531 2.597656 -13.472656 4.671875 -13.703125 C 6.898438 -13.953125 8.726562 -13.304688 10.15625 -11.765625 C 10.789062 -11.066406 11.15625 -9.90625 11.25 -8.28125 C 11.21875 -5.789062 10.628906 -3.898438 9.484375 -2.609375 C 8.347656 -1.335938 6.722656 -0.539062 4.609375 -0.21875 C 3.210938 -0.0195312 1.878906 -0.0390625 0.609375 -0.28125 C 0.484375 -2.332031 0.414062 -4.382812 0.40625 -6.4375 C 0.394531 -8.5 0.4375 -10.59375 0.53125 -12.71875 Z M 4.125 -4.296875 C 5.664062 -4.328125 6.703125 -4.851562 7.234375 -5.875 C 7.609375 -7.070312 7.523438 -8.113281 6.984375 -9 C 6.484375 -9.59375 5.519531 -9.773438 4.09375 -9.546875 C 4.070312 -8.648438 4.0625 -7.765625 4.0625 -6.890625 C 4.070312 -6.015625 4.09375 -5.148438 4.125 -4.296875 Z M 4.125 -4.296875 "/></g></g></g><g fill="#fa4729" fill-opacity="1"><g transform="translate(198.015204, 254.057283)"><g><path d="M 9.65625 -13.34375 C 9.707031 -12.726562 9.726562 -12.117188 9.71875 -11.515625 C 9.71875 -10.921875 9.691406 -10.335938 9.640625 -9.765625 L 4.328125 -9.265625 L 4.34375 -8 L 9.4375 -8.453125 L 9.4375 -5.015625 C 9.34375 -4.992188 8.875 -4.941406 8.03125 -4.859375 C 7.1875 -4.785156 5.972656 -4.679688 4.390625 -4.546875 L 4.40625 -3.359375 C 7.695312 -3.734375 9.453125 -3.910156 9.671875 -3.890625 C 9.765625 -2.492188 9.765625 -1.328125 9.671875 -0.390625 C 7.515625 -0.0664062 4.457031 0.191406 0.5 0.390625 C 0.445312 -1.554688 0.414062 -3.597656 0.40625 -5.734375 C 0.40625 -7.867188 0.429688 -10.113281 0.484375 -12.46875 C 3.992188 -12.957031 7.050781 -13.25 9.65625 -13.34375 Z M 9.65625 -13.34375 "/></g></g></g><g fill="#fa4729" fill-opacity="1"><g transform="translate(208.166296, 254.057283)"><g><path d="M 4.15625 -4.6875 C 3.351562 -4.6875 2.671875 -4.867188 2.109375 -5.234375 C 1.378906 -5.765625 0.929688 -6.289062 0.765625 -6.8125 C 0.265625 -8.394531 0.4375 -9.851562 1.28125 -11.1875 C 2.957031 -13.570312 5.96875 -14.019531 10.3125 -12.53125 L 9.53125 -9.1875 C 5.957031 -9.957031 4.253906 -9.804688 4.421875 -8.734375 C 4.523438 -8.304688 4.882812 -8.125 5.5 -8.1875 C 5.78125 -8.21875 6.054688 -8.238281 6.328125 -8.25 C 6.609375 -8.257812 6.875 -8.257812 7.125 -8.25 C 7.957031 -8.226562 8.632812 -8.039062 9.15625 -7.6875 C 9.90625 -7.175781 10.359375 -6.648438 10.515625 -6.109375 C 11.035156 -4.535156 10.859375 -3.082031 9.984375 -1.75 C 8.296875 0.664062 5.101562 1.085938 0.40625 -0.484375 L 1.1875 -3.796875 C 5.113281 -3.078125 7.007812 -3.210938 6.875 -4.203125 C 6.769531 -4.617188 6.410156 -4.800781 5.796875 -4.75 C 5.523438 -4.726562 5.253906 -4.710938 4.984375 -4.703125 C 4.710938 -4.691406 4.4375 -4.6875 4.15625 -4.6875 Z M 4.15625 -4.6875 "/></g></g></g><g fill="#fa4729" fill-opacity="1"><g transform="translate(219.374799, 254.057283)"><g><path d="M 4.578125 -13.4375 C 4.628906 -11.320312 4.65625 -9.1875 4.65625 -7.03125 C 4.664062 -4.882812 4.648438 -2.691406 4.609375 -0.453125 C 3.398438 -0.253906 2.039062 -0.125 0.53125 -0.0625 C 0.40625 -3.15625 0.375 -7.488281 0.4375 -13.0625 C 1.175781 -13.207031 1.882812 -13.304688 2.5625 -13.359375 C 3.25 -13.421875 3.921875 -13.445312 4.578125 -13.4375 Z M 1.875 -14.421875 C 1.070312 -14.535156 0.675781 -15.023438 0.6875 -15.890625 C 0.769531 -16.648438 1.179688 -17.21875 1.921875 -17.59375 C 2.660156 -17.945312 3.320312 -18.007812 3.90625 -17.78125 C 4.65625 -17.394531 4.953125 -16.816406 4.796875 -16.046875 C 4.640625 -15.460938 4.328125 -15.023438 3.859375 -14.734375 C 3.304688 -14.390625 2.644531 -14.285156 1.875 -14.421875 Z M 1.875 -14.421875 "/></g></g></g><g fill="#fa4729" fill-opacity="1"><g transform="translate(224.450344, 254.057283)"><g><path d="M 4.640625 -0.140625 C 2.835938 -0.492188 1.523438 -1.664062 0.703125 -3.65625 C 0.546875 -4.164062 0.453125 -4.710938 0.421875 -5.296875 C 0.390625 -5.878906 0.414062 -6.5 0.5 -7.15625 C 0.675781 -8.382812 1.0625 -9.441406 1.65625 -10.328125 C 2.382812 -11.367188 3.300781 -12.226562 4.40625 -12.90625 C 7.21875 -14.351562 9.8125 -14.148438 12.1875 -12.296875 L 9.96875 -8.796875 C 9.664062 -8.921875 9.351562 -9.03125 9.03125 -9.125 C 8.707031 -9.226562 8.367188 -9.304688 8.015625 -9.359375 C 6.941406 -9.503906 6.019531 -9.097656 5.25 -8.140625 C 4.882812 -7.640625 4.691406 -7.117188 4.671875 -6.578125 C 4.578125 -5.472656 5.050781 -4.675781 6.09375 -4.1875 C 7.5 -3.976562 8.328125 -4.320312 8.578125 -5.21875 C 6.984375 -5.09375 6.15625 -5.035156 6.09375 -5.046875 C 6.0625 -5.640625 6.046875 -6.1875 6.046875 -6.6875 C 6.046875 -7.195312 6.066406 -7.660156 6.109375 -8.078125 C 8.253906 -8.285156 9.878906 -8.441406 10.984375 -8.546875 C 12.097656 -8.648438 12.707031 -8.691406 12.8125 -8.671875 C 12.832031 -8.085938 12.84375 -7.546875 12.84375 -7.046875 C 12.851562 -6.546875 12.851562 -6.066406 12.84375 -5.609375 C 12.84375 -5.109375 12.769531 -4.644531 12.625 -4.21875 C 11.425781 -1.050781 8.765625 0.304688 4.640625 -0.140625 Z M 4.640625 -0.140625 "/></g></g></g><g fill="#fa4729" fill-opacity="1"><g transform="translate(237.708587, 254.057283)"><g><path d="M 0.484375 -12.609375 L 4.171875 -13.5 C 4.742188 -12.757812 5.34375 -11.929688 5.96875 -11.015625 C 6.601562 -10.097656 7.273438 -9.078125 7.984375 -7.953125 C 7.898438 -9.367188 7.882812 -11.128906 7.9375 -13.234375 C 9.84375 -13.390625 11.222656 -13.382812 12.078125 -13.21875 C 12.203125 -8.46875 12.203125 -4.269531 12.078125 -0.625 C 11.421875 -0.375 10.835938 -0.179688 10.328125 -0.046875 C 9.816406 0.078125 9.367188 0.132812 8.984375 0.125 C 7.859375 -1.582031 6.363281 -3.625 4.5 -6 L 4.5 0.125 C 2.332031 0.226562 0.988281 0.210938 0.46875 0.078125 C 0.425781 -1.796875 0.40625 -3.78125 0.40625 -5.875 C 0.414062 -7.976562 0.441406 -10.222656 0.484375 -12.609375 Z M 0.484375 -12.609375 "/></g></g></g></svg>